<svg data-v-423bf9ae="" xmlns="http://www.w3.org/2000/svg" viewBox="0 0 370 90" class="iconLeft"><!----><defs data-v-423bf9ae=""><linearGradient data-v-423bf9ae="" gradientTransform="rotate(25)" id="660e45d6-8314-4e2f-a217-f9eb3708a049" x1="0%" y1="0%" x2="100%" y2="0%"><stop data-v-423bf9ae="" offset="0%" style="stop-color: rgb(54, 22, 172); stop-opacity: 1;"></stop><stop data-v-423bf9ae="" offset="100%" style="stop-color: rgb(224, 155, 237); stop-opacity: 1;"></stop></linearGradient></defs><!----><g data-v-423bf9ae="" id="a759899a-9dc5-4a0a-b2aa-f1a404b8e944" fill="#ffffff" transform="matrix(5.439710013831304,0,0,5.439710013831304,97.17021169824139,-0.17679120791802916)"><path d="M7.27 3.75Q7.41 3.53 7.67 3.44Q7.94 3.36 8.34 3.36Q8.74 3.36 8.97 3.43Q9.21 3.50 9.34 3.60Q9.46 3.70 9.52 3.89L9.52 3.89Q9.60 4.13 9.60 4.62L9.60 4.62L9.60 8.85Q9.60 10.70 8.46 12.21L8.46 12.21Q7.90 12.92 7.01 13.36Q6.13 13.80 5.06 13.80Q3.99 13.80 3.12 13.36Q2.24 12.91 1.69 12.18L1.69 12.18Q0.56 10.70 0.56 8.82L0.56 8.82L0.56 4.61Q0.56 4.27 0.58 4.11Q0.60 3.95 0.71 3.74Q0.83 3.53 1.09 3.44Q1.36 3.36 1.81 3.36Q2.25 3.36 2.52 3.44Q2.79 3.53 2.88 3.74L2.88 3.74Q3.05 4.06 3.05 4.62L3.05 4.62L3.05 8.82Q3.05 9.67 3.47 10.44L3.47 10.44Q3.68 10.84 4.10 11.07Q4.52 11.31 5.10 11.31L5.10 11.31Q6.12 11.31 6.62 10.56Q7.13 9.80 7.13 8.81L7.13 8.81L7.13 4.52Q7.13 3.98 7.27 3.75ZM11.40 3.36L11.40 3.36L19.18 3.36Q19.63 3.36 19.84 3.47Q20.05 3.57 20.12 3.79Q20.19 4.02 20.19 4.38Q20.19 4.75 20.12 4.96Q20.05 5.18 19.88 5.26L19.88 5.26Q19.63 5.39 19.17 5.39L19.17 5.39L16.49 5.39L16.49 12.43Q16.49 12.75 16.47 12.91Q16.45 13.06 16.34 13.27Q16.24 13.47 15.97 13.55Q15.71 13.64 15.27 13.64Q14.84 13.64 14.58 13.55Q14.32 13.47 14.22 13.27Q14.11 13.06 14.09 12.90Q14.07 12.74 14.07 12.42L14.07 12.42L14.07 5.39L11.38 5.39Q10.93 5.39 10.72 5.29Q10.51 5.18 10.44 4.96Q10.37 4.73 10.37 4.37Q10.37 4.00 10.44 3.79Q10.51 3.57 10.68 3.49L10.68 3.49Q10.93 3.36 11.40 3.36ZM19.07 9.95Q19.07 8.27 20.24 7.18Q21.42 6.09 22.93 6.09Q24.44 6.09 25.61 7.18Q26.77 8.26 26.77 9.94L26.77 9.94Q26.77 11.10 26.17 12.01Q25.56 12.91 24.70 13.34Q23.84 13.76 22.92 13.76Q21.99 13.76 21.13 13.31Q20.26 12.85 19.66 11.96Q19.07 11.07 19.07 9.95L19.07 9.95ZM21.99 10.96Q22.44 11.30 22.90 11.30Q23.37 11.30 23.83 10.95Q24.29 10.60 24.29 9.91Q24.29 9.23 23.86 8.89Q23.42 8.55 22.92 8.55Q22.41 8.55 21.98 8.90Q21.55 9.25 21.55 9.93Q21.55 10.61 21.99 10.96ZM33.40 8.76L32.02 9.94L33.88 11.48Q34.23 11.77 34.32 11.93Q34.41 12.08 34.41 12.22L34.41 12.22Q34.41 12.56 33.98 13.13L33.98 13.13Q33.50 13.72 33.14 13.72L33.14 13.72Q32.83 13.72 32.28 13.31L32.28 13.31L32.14 13.22Q31.82 12.95 31.15 12.29Q30.48 11.62 30.13 11.34L30.13 11.34L30.13 12.42Q30.13 12.74 30.11 12.90Q30.09 13.06 29.97 13.27L29.97 13.27Q29.79 13.64 28.90 13.64L28.90 13.64Q28.01 13.64 27.82 13.26L27.82 13.26Q27.72 13.05 27.70 12.89Q27.68 12.73 27.68 12.40L27.68 12.40L27.68 4.02Q27.68 3.70 27.70 3.54Q27.72 3.37 27.82 3.16L27.82 3.16Q28.01 2.79 28.91 2.79L28.91 2.79Q29.58 2.79 29.86 3.02L29.86 3.02Q30.10 3.22 30.11 3.64L30.11 3.64Q30.13 3.77 30.13 4.03L30.13 4.03L30.13 8.47Q30.38 8.26 30.89 7.76Q31.40 7.25 31.65 7.04L31.65 7.04L31.82 6.93Q32.31 6.55 32.66 6.55Q33.01 6.55 33.47 7.12Q33.92 7.69 33.92 8.01Q33.92 8.33 33.40 8.76L33.40 8.76ZM41.87 9.07Q41.87 9.93 41.45 10.34Q41.02 10.75 40.50 10.75L40.50 10.75L37.18 10.75Q37.18 11.14 37.65 11.41Q38.11 11.68 38.57 11.68L38.57 11.68Q39.38 11.68 39.84 11.51L39.84 11.51L40.00 11.45Q40.33 11.30 40.56 11.30L40.56 11.30Q41.01 11.30 41.33 11.93L41.33 11.93Q41.51 12.31 41.51 12.57L41.51 12.57Q41.51 13.82 38.53 13.82L38.53 13.82Q37.49 13.82 36.69 13.46Q35.88 13.10 35.43 12.52L35.43 12.52Q34.55 11.38 34.55 9.98L34.55 9.98Q34.55 8.22 35.69 7.16Q36.83 6.10 38.54 6.10L38.54 6.10Q40.49 6.10 41.40 7.48L41.40 7.48Q41.87 8.20 41.87 9.07ZM37.16 9.48L38.92 9.48Q39.45 9.48 39.45 9.03L39.45 9.03Q39.45 8.71 39.21 8.51Q38.96 8.32 38.51 8.32Q38.05 8.32 37.60 8.69Q37.16 9.06 37.16 9.48L37.16 9.48ZM46.89 6.26L46.89 6.26Q48.29 6.26 49.22 7.33Q50.15 8.40 50.15 9.94L50.15 9.94L50.15 12.40Q50.15 12.73 50.13 12.89Q50.11 13.05 50.01 13.24L50.01 13.24Q49.81 13.62 48.92 13.62L48.92 13.62Q47.92 13.62 47.77 13.10L47.77 13.10Q47.68 12.87 47.68 12.39L47.68 12.39L47.68 9.93Q47.68 9.35 47.35 9.03Q47.03 8.71 46.47 8.71Q45.92 8.71 45.58 9.04Q45.23 9.38 45.23 9.93L45.23 9.93L45.23 12.40Q45.23 12.73 45.21 12.89Q45.19 13.05 45.08 13.24L45.08 13.24Q44.90 13.62 44.00 13.62L44.00 13.62Q43.12 13.62 42.92 13.24L42.92 13.24Q42.83 13.03 42.80 12.87Q42.78 12.71 42.78 12.39L42.78 12.39L42.78 7.43Q42.78 7.13 42.80 6.97Q42.83 6.80 42.94 6.61L42.94 6.61Q43.13 6.26 44.02 6.26L44.02 6.26Q44.87 6.26 45.07 6.58L45.07 6.58Q45.21 6.82 45.21 7.15L45.21 7.15Q45.26 7.06 45.46 6.87Q45.65 6.69 45.84 6.58L45.84 6.58Q46.31 6.26 46.89 6.26Z"></path></g><!----><g data-v-423bf9ae="" id="80fad2d6-091b-4c17-b85b-ac8cf6115f40" transform="matrix(2.254083066345421,0,0,2.254083066345421,-12.632725237193604,-9.016904545070751)" stroke="none" fill="#ffffff"><path d="M20.178 8.886l-3.19-.855a3.001 3.001 0 00-3.674 2.121l-1.012 3.776H9c-1.656 0-3 1.344-3 3v24c0 1.656 1.344 3 3 3h16c1.656 0 3-1.344 3-3v-.582l.949-3.54 12.227-20.29.01-.016a3.002 3.002 0 00-1.098-4.098l-13.857-8A3.001 3.001 0 0022.133 5.5l-1.955 3.386zm-7.09 7.042H9a1 1 0 00-1 1v24a1 1 0 001 1h16a1 1 0 001-1v-.696-23.304a1 1 0 00-1-1H13.088zm4.426 6.215a.994.994 0 00-1.028 0l-5 3A.997.997 0 0011 26v6c0 .351.184.677.486.857l5 3a.994.994 0 001.028 0l5-3A.997.997 0 0023 32v-6a.997.997 0 00-.486-.857l-5-3zM17 24.166l4 2.4v4.868l-4 2.4-4-2.4v-4.868l4-2.4zm3.387-13.154l-3.916-1.049a1 1 0 00-1.225.707l-.873 3.258H25c1.656 0 3 1.344 3 3v15.69l4.633-17.289a1 1 0 00-.707-1.225l-11.507-3.083-.032-.009zm10.431 18.817l8.645-14.345a1.001 1.001 0 00-.375-1.35l-13.857-8a1 1 0 00-1.366.366l-1.687 2.921 10.265 2.751a3.001 3.001 0 012.122 3.674l-3.747 13.983z"></path></g><!----></svg>