<svg data-v-423bf9ae="" xmlns="http://www.w3.org/2000/svg" viewBox="0 0 436 90" class="iconLeft"><!----><defs data-v-423bf9ae=""><linearGradient data-v-423bf9ae="" gradientTransform="rotate(25)" id="68a6abfa-2408-4692-8e01-bfcef2d53881" x1="0%" y1="0%" x2="100%" y2="0%"><stop data-v-423bf9ae="" offset="0%" style="stop-color: rgb(54, 22, 172); stop-opacity: 1;"></stop><stop data-v-423bf9ae="" offset="100%" style="stop-color: rgb(224, 155, 237); stop-opacity: 1;"></stop></linearGradient></defs><!----><g data-v-423bf9ae="" id="025b5b87-1138-43c7-83b4-f236a49dccdd" fill="#ffffff" transform="matrix(5.439710013831304,0,0,5.439710013831304,97.17021287785869,-0.17679120791802916)"><path d="M7.27 3.75Q7.41 3.53 7.67 3.44Q7.94 3.36 8.34 3.36Q8.74 3.36 8.97 3.43Q9.21 3.50 9.34 3.60Q9.46 3.70 9.52 3.89L9.52 3.89Q9.60 4.13 9.60 4.62L9.60 4.62L9.60 8.85Q9.60 10.70 8.46 12.21L8.46 12.21Q7.90 12.92 7.01 13.36Q6.13 13.80 5.06 13.80Q3.99 13.80 3.12 13.36Q2.24 12.91 1.69 12.18L1.69 12.18Q0.56 10.70 0.56 8.82L0.56 8.82L0.56 4.61Q0.56 4.27 0.58 4.11Q0.60 3.95 0.71 3.74Q0.83 3.53 1.09 3.44Q1.36 3.36 1.81 3.36Q2.25 3.36 2.52 3.44Q2.79 3.53 2.88 3.74L2.88 3.74Q3.05 4.06 3.05 4.62L3.05 4.62L3.05 8.82Q3.05 9.67 3.47 10.44L3.47 10.44Q3.68 10.84 4.10 11.07Q4.52 11.31 5.10 11.31L5.10 11.31Q6.12 11.31 6.62 10.56Q7.13 9.80 7.13 8.81L7.13 8.81L7.13 4.52Q7.13 3.98 7.27 3.75ZM14.83 6.26L14.83 6.26Q16.23 6.26 17.16 7.33Q18.09 8.40 18.09 9.94L18.09 9.94L18.09 12.40Q18.09 12.73 18.07 12.89Q18.05 13.05 17.95 13.24L17.95 13.24Q17.75 13.62 16.86 13.62L16.86 13.62Q15.86 13.62 15.71 13.10L15.71 13.10Q15.62 12.87 15.62 12.39L15.62 12.39L15.62 9.93Q15.62 9.35 15.29 9.03Q14.97 8.71 14.41 8.71Q13.86 8.71 13.52 9.04Q13.17 9.38 13.17 9.93L13.17 9.93L13.17 12.40Q13.17 12.73 13.15 12.89Q13.13 13.05 13.02 13.24L13.02 13.24Q12.84 13.62 11.94 13.62L11.94 13.62Q11.06 13.62 10.86 13.24L10.86 13.24Q10.77 13.03 10.74 12.87Q10.72 12.71 10.72 12.39L10.72 12.39L10.72 7.43Q10.72 7.13 10.74 6.97Q10.77 6.80 10.88 6.61L10.88 6.61Q11.07 6.26 11.96 6.26L11.96 6.26Q12.81 6.26 13.01 6.58L13.01 6.58Q13.15 6.82 13.15 7.15L13.15 7.15Q13.20 7.06 13.40 6.87Q13.59 6.69 13.78 6.58L13.78 6.58Q14.25 6.26 14.83 6.26ZM19.21 12.40L19.21 7.49Q19.21 7.17 19.23 7.01Q19.25 6.85 19.35 6.64L19.35 6.64Q19.54 6.27 20.44 6.27L20.44 6.27Q21.11 6.27 21.39 6.51L21.39 6.51Q21.63 6.71 21.64 7.11L21.64 7.11Q21.66 7.25 21.66 7.52L21.66 7.52L21.66 12.42Q21.66 12.74 21.64 12.90Q21.62 13.06 21.50 13.27L21.50 13.27Q21.32 13.64 20.43 13.64L20.43 13.64Q19.54 13.64 19.35 13.26L19.35 13.26Q19.25 13.05 19.23 12.89Q19.21 12.74 19.21 12.40L19.21 12.40ZM21.51 4.89Q21.41 5.10 21.14 5.18Q20.87 5.26 20.43 5.26Q19.99 5.26 19.73 5.18Q19.46 5.10 19.36 4.89Q19.25 4.68 19.23 4.52Q19.21 4.35 19.21 4.03Q19.21 3.71 19.23 3.55Q19.25 3.39 19.35 3.19L19.35 3.19Q19.54 2.81 20.44 2.81L20.44 2.81Q21.32 2.81 21.50 3.19L21.50 3.19Q21.62 3.40 21.64 3.56Q21.66 3.72 21.66 4.05Q21.66 4.37 21.64 4.53Q21.62 4.69 21.51 4.89ZM23.45 3.36L23.45 3.36L31.23 3.36Q31.68 3.36 31.89 3.47Q32.10 3.57 32.17 3.79Q32.24 4.02 32.24 4.38Q32.24 4.75 32.17 4.96Q32.10 5.18 31.93 5.26L31.93 5.26Q31.68 5.39 31.22 5.39L31.22 5.39L28.55 5.39L28.55 12.43Q28.55 12.75 28.52 12.91Q28.50 13.06 28.40 13.27Q28.29 13.47 28.03 13.55Q27.76 13.64 27.33 13.64Q26.89 13.64 26.63 13.55Q26.38 13.47 26.27 13.27Q26.17 13.06 26.14 12.90Q26.12 12.74 26.12 12.42L26.12 12.42L26.12 5.39L23.44 5.39Q22.99 5.39 22.78 5.29Q22.57 5.18 22.50 4.96Q22.43 4.73 22.43 4.37Q22.43 4.00 22.50 3.79Q22.57 3.57 22.74 3.49L22.74 3.49Q22.99 3.36 23.45 3.36ZM31.12 9.95Q31.12 8.27 32.30 7.18Q33.47 6.09 34.99 6.09Q36.50 6.09 37.66 7.18Q38.82 8.26 38.82 9.94L38.82 9.94Q38.82 11.10 38.22 12.01Q37.62 12.91 36.76 13.34Q35.90 13.76 34.97 13.76Q34.05 13.76 33.18 13.31Q32.31 12.85 31.72 11.96Q31.12 11.07 31.12 9.95L31.12 9.95ZM34.05 10.96Q34.50 11.30 34.96 11.30Q35.42 11.30 35.88 10.95Q36.34 10.60 36.34 9.91Q36.34 9.23 35.91 8.89Q35.48 8.55 34.97 8.55Q34.47 8.55 34.03 8.90Q33.60 9.25 33.60 9.93Q33.60 10.61 34.05 10.96ZM45.46 8.76L44.07 9.94L45.93 11.48Q46.28 11.77 46.38 11.93Q46.47 12.08 46.47 12.22L46.47 12.22Q46.47 12.56 46.03 13.13L46.03 13.13Q45.56 13.72 45.19 13.72L45.19 13.72Q44.88 13.72 44.34 13.31L44.34 13.31L44.20 13.22Q43.88 12.95 43.20 12.29Q42.53 11.62 42.18 11.34L42.18 11.34L42.18 12.42Q42.18 12.74 42.16 12.90Q42.14 13.06 42.03 13.27L42.03 13.27Q41.85 13.64 40.95 13.64L40.95 13.64Q40.07 13.64 39.87 13.26L39.87 13.26Q39.77 13.05 39.75 12.89Q39.73 12.73 39.73 12.40L39.73 12.40L39.73 4.02Q39.73 3.70 39.75 3.54Q39.77 3.37 39.87 3.16L39.87 3.16Q40.07 2.79 40.96 2.79L40.96 2.79Q41.64 2.79 41.92 3.02L41.92 3.02Q42.15 3.22 42.17 3.64L42.17 3.64Q42.18 3.77 42.18 4.03L42.18 4.03L42.18 8.47Q42.43 8.26 42.95 7.76Q43.46 7.25 43.71 7.04L43.71 7.04L43.88 6.93Q44.37 6.55 44.72 6.55Q45.07 6.55 45.52 7.12Q45.98 7.69 45.98 8.01Q45.98 8.33 45.46 8.76L45.46 8.76ZM53.93 9.07Q53.93 9.93 53.50 10.34Q53.07 10.75 52.56 10.75L52.56 10.75L49.24 10.75Q49.24 11.14 49.70 11.41Q50.16 11.68 50.62 11.68L50.62 11.68Q51.44 11.68 51.90 11.51L51.90 11.51L52.05 11.45Q52.39 11.30 52.61 11.30L52.61 11.30Q53.06 11.30 53.38 11.93L53.38 11.93Q53.56 12.31 53.56 12.57L53.56 12.57Q53.56 13.82 50.58 13.82L50.58 13.82Q49.55 13.82 48.74 13.46Q47.94 13.10 47.49 12.52L47.49 12.52Q46.61 11.38 46.61 9.98L46.61 9.98Q46.61 8.22 47.75 7.16Q48.89 6.10 50.60 6.10L50.60 6.10Q52.54 6.10 53.45 7.48L53.45 7.48Q53.93 8.20 53.93 9.07ZM49.21 9.48L50.97 9.48Q51.51 9.48 51.51 9.03L51.51 9.03Q51.51 8.71 51.26 8.51Q51.02 8.32 50.56 8.32Q50.11 8.32 49.66 8.69Q49.21 9.06 49.21 9.48L49.21 9.48ZM58.94 6.26L58.94 6.26Q60.34 6.26 61.27 7.33Q62.20 8.40 62.20 9.94L62.20 9.94L62.20 12.40Q62.20 12.73 62.18 12.89Q62.16 13.05 62.06 13.24L62.06 13.24Q61.87 13.62 60.97 13.62L60.97 13.62Q59.98 13.62 59.82 13.10L59.82 13.10Q59.74 12.87 59.74 12.39L59.74 12.39L59.74 9.93Q59.74 9.35 59.41 9.03Q59.08 8.71 58.53 8.71Q57.97 8.71 57.63 9.04Q57.29 9.38 57.29 9.93L57.29 9.93L57.29 12.40Q57.29 12.73 57.27 12.89Q57.25 13.05 57.13 13.24L57.13 13.24Q56.95 13.62 56.06 13.62L56.06 13.62Q55.17 13.62 54.98 13.24L54.98 13.24Q54.88 13.03 54.86 12.87Q54.84 12.71 54.84 12.39L54.84 12.39L54.84 7.43Q54.84 7.13 54.86 6.97Q54.88 6.80 54.99 6.61L54.99 6.61Q55.19 6.26 56.07 6.26L56.07 6.26Q56.92 6.26 57.12 6.58L57.12 6.58Q57.26 6.82 57.26 7.15L57.26 7.15Q57.32 7.06 57.51 6.87Q57.71 6.69 57.89 6.58L57.89 6.58Q58.37 6.26 58.94 6.26Z"></path></g><!----><g data-v-423bf9ae="" id="bc693869-e18e-49b8-a9a1-e386b8877894" transform="matrix(2.254083066345421,0,0,2.254083066345421,-12.632725237193604,-9.016904545070751)" stroke="none" fill="#ffffff"><path d="M20.178 8.886l-3.19-.855a3.001 3.001 0 00-3.674 2.121l-1.012 3.776H9c-1.656 0-3 1.344-3 3v24c0 1.656 1.344 3 3 3h16c1.656 0 3-1.344 3-3v-.582l.949-3.54 12.227-20.29.01-.016a3.002 3.002 0 00-1.098-4.098l-13.857-8A3.001 3.001 0 0022.133 5.5l-1.955 3.386zm-7.09 7.042H9a1 1 0 00-1 1v24a1 1 0 001 1h16a1 1 0 001-1v-.696-23.304a1 1 0 00-1-1H13.088zm4.426 6.215a.994.994 0 00-1.028 0l-5 3A.997.997 0 0011 26v6c0 .351.184.677.486.857l5 3a.994.994 0 001.028 0l5-3A.997.997 0 0023 32v-6a.997.997 0 00-.486-.857l-5-3zM17 24.166l4 2.4v4.868l-4 2.4-4-2.4v-4.868l4-2.4zm3.387-13.154l-3.916-1.049a1 1 0 00-1.225.707l-.873 3.258H25c1.656 0 3 1.344 3 3v15.69l4.633-17.289a1 1 0 00-.707-1.225l-11.507-3.083-.032-.009zm10.431 18.817l8.645-14.345a1.001 1.001 0 00-.375-1.35l-13.857-8a1 1 0 00-1.366.366l-1.687 2.921 10.265 2.751a3.001 3.001 0 012.122 3.674l-3.747 13.983z"></path></g><!----></svg>