<svg data-v-423bf9ae="" xmlns="http://www.w3.org/2000/svg" viewBox="0 0 370 90" class="iconLeft"><!----><defs data-v-423bf9ae=""><linearGradient data-v-423bf9ae="" gradientTransform="rotate(25)" id="660e45d6-8314-4e2f-a217-f9eb3708a049" x1="0%" y1="0%" x2="100%" y2="0%"><stop data-v-423bf9ae="" offset="0%" style="stop-color: #5f64b5; stop-opacity: 1;"></stop><stop data-v-423bf9ae="" offset="100%" style="stop-color: #5f64b5; stop-opacity: 1;"></stop></linearGradient></defs><!----><g data-v-423bf9ae="" id="a759899a-9dc5-4a0a-b2aa-f1a404b8e944" fill="#5f64b5" transform="matrix(5.439710013831304,0,0,5.439710013831304,97.17021169824139,-0.17679120791802916)">


</g><!----><g data-v-423bf9ae="" id="80fad2d6-091b-4c17-b85b-ac8cf6115f40" transform="matrix(2.254083066345421,0,0,2.254083066345421,-12.632725237193604,-9.016904545070751)" stroke="none" fill=" #5f64b5"><path d="M20.178 8.886l-3.19-.855a3.001 3.001 0 00-3.674 2.121l-1.012 3.776H9c-1.656 0-3 1.344-3 3v24c0 1.656 1.344 3 3 3h16c1.656 0 3-1.344 3-3v-.582l.949-3.54 12.227-20.29.01-.016a3.002 3.002 0 00-1.098-4.098l-13.857-8A3.001 3.001 0 0022.133 5.5l-1.955 3.386zm-7.09 7.042H9a1 1 0 00-1 1v24a1 1 0 001 1h16a1 1 0 001-1v-.696-23.304a1 1 0 00-1-1H13.088zm4.426 6.215a.994.994 0 00-1.028 0l-5 3A.997.997 0 0011 26v6c0 .351.184.677.486.857l5 3a.994.994 0 001.028 0l5-3A.997.997 0 0023 32v-6a.997.997 0 00-.486-.857l-5-3zM17 24.166l4 2.4v4.868l-4 2.4-4-2.4v-4.868l4-2.4zm3.387-13.154l-3.916-1.049a1 1 0 00-1.225.707l-.873 3.258H25c1.656 0 3 1.344 3 3v15.69l4.633-17.289a1 1 0 00-.707-1.225l-11.507-3.083-.032-.009zm10.431 18.817l8.645-14.345a1.001 1.001 0 00-.375-1.35l-13.857-8a1 1 0 00-1.366.366l-1.687 2.921 10.265 2.751a3.001 3.001 0 012.122 3.674l-3.747 13.983z"></path></g><!----></svg>